<svg xmlns="http://www.w3.org/2000/svg" viewBox="0 0 82.8 46.1">
    <title>
        Fill 3
    </title>
    <path fill="#7354BD" d="M0 46.1h82.8V0H0v46.1zm73.8-6.9l-2.5-2.1c-1 1.2-3.1 2.4-5.4 2.4-4.8 0-6.7-2.9-6.7-6v-9.4L52.3 31l8.4 8.2h-6.9l-6.6-6.4v6.4h-5.5V23.4h5.5v6.2l6.3-6.2h11.2V32c0 2.5.6 3.3 2 3.3 1.3 0 2.2-.7 2.8-1.7V23.4H75v15.8h-1.2zm-58.9-7h-1.6V39H7.9V18.6h7.8c4.5 0 8.2 3 8.2 6.8 0 2.3-1.4 4.3-3.5 5.6l5.8 8H20l-5.1-6.8zm9.3-1c0-4.7 3.8-8.4 8.5-8.4s8.5 3.7 8.5 8.4c0 4.6-3.8 8.4-8.5 8.4s-8.5-3.8-8.5-8.4zm6 .3c0 2.5 1.2 4.5 2.7 4.5 1.5 0 2.7-2 2.7-4.5S34.4 27 32.9 27c-1.4 0-2.7 2-2.7 4.5zm45.9-7.2c0-.5.4-.9.9-.9s.9.4.9.9-.4.9-.9.9-.9-.4-.9-.9zm-62.2-2.1v6.6h1.6c1.8 0 3.2-1.5 3.2-3.3 0-1.8-1.4-3.3-3.2-3.3h-1.6z"/>
</svg>
